<svg width="190" height="122" viewBox="0 0 190 122" fill="none" xmlns="http://www.w3.org/2000/svg">
<g clip-path="url(#clip0_35_85)">
<path d="M123.066 33.8915L126.03 24.927L37.7814 44.5932L1.61213 118.162L0 121.28L141.23 69.0501V65.6731L155.342 51.1548L173.063 61.7741L167.919 39.0118L189.591 16.558L164.019 23.0554L158.691 0L155.003 2.28691L145.101 27.6292L123.066 33.8915Z" fill="#030D84"/>
<path d="M79.1646 58.8939C77.7173 62.4815 76.2304 66.0569 74.7678 69.6384C74.6915 69.8216 74.5205 70.0353 74.7984 70.2796C75.6899 69.6537 76.5296 68.9148 77.4944 68.4171C80.6088 66.808 82.4927 64.3012 83.4239 60.9548C83.8239 59.5198 84.4926 58.158 85.1246 56.5459C83.427 56.9825 81.9828 57.4008 80.5141 57.7123C79.7905 57.8649 79.4302 58.2374 79.1646 58.8939Z" fill="white"/>
<path d="M87.8083 40.3572C86.3488 40.6106 84.9076 40.9618 83.4573 41.2671C83.1642 41.3282 82.9963 41.4931 82.9169 41.7831C82.4131 43.6548 81.9001 45.5234 81.3994 47.3951C81.3322 47.6454 81.2651 48.0332 81.6681 47.9752C82.41 47.8683 83.3932 48.0179 83.5276 46.9065C83.6619 45.8135 84.3061 45.3738 85.3107 45.2303C85.7961 45.16 86.2847 45.0318 86.7396 44.8547C88.2296 44.2776 89.3013 42.8304 89.2647 41.4961C89.2341 40.5282 88.6265 40.2137 87.8022 40.3572H87.8083ZM85.674 43.6212C85.4542 43.67 85.2343 43.7311 85.103 43.7647C84.8283 43.7922 84.5626 43.841 84.5229 43.6395C84.4557 43.3098 84.5077 42.9312 84.755 42.6899C84.926 42.522 85.216 42.4304 85.4664 42.3938C85.9732 42.3235 86.7427 41.8075 86.9259 42.467C87.1274 43.1815 86.3366 43.4807 85.674 43.6212Z" fill="white"/>
<path d="M80.2745 42.8857C80.2226 42.5681 80.25 42.0888 79.7493 42.1804C78.8119 42.3544 77.8166 42.3117 77.209 43.3834C76.0457 45.4291 74.748 47.3984 73.4534 49.4808C72.7512 48.4671 72.6199 47.7129 73.5939 46.9954C73.9297 46.7481 74.1282 46.2596 74.2931 45.8443C74.9007 44.3268 74.2748 43.5086 72.6687 43.7803C71.3589 44.0032 70.0765 44.3757 68.7758 44.6535C68.3483 44.7451 68.1163 44.9589 68.0064 45.3772C67.5362 47.1786 67.0476 48.977 66.5713 50.7784C66.5103 51.0135 66.3454 51.2975 66.7698 51.4074C67.3591 51.5631 68.4949 50.9677 68.675 50.3815C68.788 50.0182 68.8918 49.6518 68.9895 49.2854C69.1483 48.69 69.707 48.8213 70.107 48.6778C70.4215 48.5648 70.6566 48.748 70.6933 49.0442C70.8978 50.6105 71.8963 50.354 72.9222 50.0395C73.7832 49.7739 74.9556 49.9632 75.4564 49.2152C76.177 48.1373 77.2029 48.1404 78.2074 47.8961C78.5341 47.8167 78.6868 47.8229 78.8974 48.1954C79.3493 49.0014 80.0272 48.3205 80.5951 48.2717C81.0836 48.232 81.0836 47.8137 81.0073 47.3893C80.7477 45.8901 80.5218 44.3849 80.2714 42.8857H80.2745ZM72.1039 46.2565C71.9482 46.6199 70.22 47.2824 69.8506 47.1572C69.6521 47.0901 69.646 46.9557 69.6735 46.8031C69.7284 46.4702 69.7101 46.0733 70.1101 45.942C70.6139 45.7772 71.136 45.6672 71.5818 45.5512C72.2565 45.4962 72.2932 45.8199 72.1069 46.2565H72.1039ZM77.2639 46.4183C77.5693 45.7283 77.8441 45.1604 78.2898 44.6719C78.8639 46.055 78.7753 46.2229 77.2639 46.4183Z" fill="white"/>
<path d="M96.7484 38.2688C95.924 38.3634 95.0019 38.4031 94.8798 39.5206C94.7577 40.6595 94.2081 41.2121 93.0295 41.3831C91.6922 41.5755 91.7196 41.6824 91.9944 40.3847C92.0616 40.0733 92.4311 39.5145 91.8418 39.4748C91.1792 39.429 90.3029 39.3496 90.0373 40.2717C89.5152 42.0976 89.0541 43.9387 88.5503 45.7707C88.419 46.2531 88.59 46.4088 89.3045 46.305C90.0098 46.2776 90.7212 45.9539 90.8159 44.8364C90.8983 43.8868 91.3136 43.264 92.4005 43.1052C93.9669 42.8762 93.9516 42.8029 93.6066 44.3448C93.5425 44.6379 93.2341 45.16 93.747 45.157C94.4371 45.157 95.3378 45.2974 95.6126 44.2807C96.0981 42.4854 96.5896 40.6931 97.066 38.8947C97.1392 38.6199 97.2827 38.2077 96.7484 38.2688Z" fill="white"/>
<path d="M101.229 52.3717C100.899 52.4572 100.627 52.5946 100.487 52.9854C99.3083 56.2646 98.1023 59.5317 96.9023 62.8017C96.9665 62.8567 97.0306 62.9147 97.0947 62.9697C98.1237 62.2582 99.0854 61.4125 100.194 60.8629C102.945 59.492 104.478 57.2967 105.11 54.3533C105.336 53.3091 105.922 52.3534 106.071 51.1504C104.374 51.5779 102.798 51.9656 101.229 52.3717Z" fill="white"/>
<path d="M66.2443 47.7348C65.4321 47.9363 64.626 48.1989 63.8017 48.3118C62.8796 48.437 62.8032 49.1423 62.849 49.7377C62.907 50.4705 63.6123 49.7866 64.0215 50.1194C63.7284 50.727 63.1421 50.8338 62.6017 50.9743C61.7743 51.1911 61.2552 50.7361 61.3254 49.9026C61.4903 47.9912 63.1177 46.944 64.9253 47.5851C65.4748 47.7775 66.916 47.3684 66.9496 46.9714C67.032 46.0768 66.4794 45.6646 65.6794 45.5089C62.733 44.9379 59.0263 48.092 59.1118 51.0842C59.1393 52.0399 59.6278 52.562 60.5377 52.7177C63.1208 53.1635 66.3756 50.9193 66.8794 48.3759C66.9984 47.7806 66.8183 47.5912 66.2382 47.7348H66.2443Z" fill="white"/>
<path d="M57.5481 47.4074C56.8295 47.3992 56.1192 47.8053 55.4169 48.6256C55.0475 49.0561 54.7208 49.734 54.2689 49.8378C53.6094 49.9874 53.6246 49.0867 53.3071 48.6775C52.9254 48.1829 52.498 48.3172 52.0888 48.4974C51.4721 48.7722 51.985 49.1264 52.098 49.4225C52.2201 49.737 52.3911 50.0484 52.6018 50.3141C53.1239 50.9766 52.9987 51.4926 52.4277 52.0911C51.5392 53.0162 50.7454 54.0299 49.75 55.1932C51.2889 55.3245 51.7285 54.2528 52.3667 53.5231C53.5697 52.1522 53.5452 52.1308 54.5162 53.6422C54.5559 53.7063 54.5803 53.7826 54.6261 53.8406C55.0108 54.3322 55.4749 54.0757 55.8627 53.9017C56.4092 53.6574 55.9421 53.3307 55.823 53.0743C55.6306 52.6621 55.4138 52.2529 55.139 51.8926C54.6383 51.2362 54.7299 50.7415 55.2948 50.1309C56.0795 49.279 56.9252 48.4546 57.545 47.4043L57.5481 47.4074Z" fill="white"/>
<path d="M50.6564 48.8977C50.1679 48.7359 49.5175 48.9008 49.1298 49.4107C48.9466 49.6519 48.8092 49.9267 48.6535 50.1893C47.7344 51.7098 46.8123 53.2303 45.8933 54.7509C45.8109 54.7295 45.7254 54.7051 45.6429 54.6837C45.4994 53.554 45.3834 52.4212 45.2002 51.2976C45.1361 50.8946 45.246 50.2137 44.6201 50.2412C44.043 50.2687 43.3133 50.2259 43.0995 51.1144C42.6751 52.8884 42.1713 54.641 41.7133 56.4058C41.6553 56.6317 41.4294 56.9615 41.8202 57.0775C42.1561 57.1782 42.5255 57.105 42.6904 56.7294C42.8125 56.4546 42.8522 56.1432 42.9438 55.8562C43.3285 54.6715 43.4812 53.4105 44.1254 52.006C44.3392 53.4166 44.4918 54.5402 44.6842 55.6547C44.8185 56.4271 45.4658 56.6378 46.0276 56.076C46.2902 55.8134 46.4551 55.4531 46.6505 55.1295C47.4718 53.783 48.2871 52.4304 49.1054 51.0808C48.971 52.4121 48.6443 53.6548 48.3298 54.9005C48.2718 55.1325 48.0306 55.4562 48.4031 55.5783C48.6779 55.6699 49.0351 55.5661 49.2275 55.3188C49.3801 55.1173 49.4473 54.8394 49.5145 54.583C49.9175 53.0777 50.3328 51.5755 50.69 50.061C50.7786 49.6824 51.264 49.0992 50.6503 48.8977H50.6564Z" fill="white"/>
<path d="M99.5217 37.6764C98.8652 37.7039 97.9736 37.6184 97.7294 38.3695C97.1218 40.2472 96.6699 42.1739 96.1661 44.0852C96.0745 44.4333 96.1111 44.7203 96.7554 44.5371C97.2134 44.3875 98.0408 44.6043 98.282 43.6975C98.7553 41.896 99.2377 40.0976 99.7018 38.2931C99.7598 38.0672 99.9461 37.6581 99.5217 37.6764Z" fill="white"/>
<path d="M184.007 19.1824C177.586 20.9349 171.171 22.7028 164.753 24.4706C163.333 24.8615 163.321 24.8645 163.004 23.4722C161.917 18.7274 160.839 13.9826 159.752 9.2378C159.324 7.3753 158.872 5.51585 158.421 3.60449C157.923 3.90677 157.901 4.32507 157.779 4.67009C155.083 12.3094 152.39 19.9487 149.725 27.6003C149.477 28.3086 149.139 28.6994 148.369 28.904C143.377 30.2475 138.4 31.655 133.417 33.0382C128.733 34.3358 124.047 35.6274 119.094 36.9952C119.916 34.6106 120.664 32.458 121.39 30.3024C121.482 30.0276 121.744 29.7009 121.534 29.4445C121.317 29.1788 120.963 29.3864 120.676 29.4536C117.302 30.2261 113.931 31.0047 110.56 31.7772C97.3273 34.8121 84.0944 37.844 70.8614 40.8821C60.7428 43.2056 50.6273 45.5475 40.5026 47.8466C39.8645 47.9932 39.5286 48.271 39.2599 48.8359C38.0356 51.4128 36.7745 53.9745 35.5258 56.5424C25.9445 76.2147 16.3664 95.887 6.79128 115.562C6.66915 115.816 6.40351 116.063 6.64472 116.442C6.84929 116.384 7.06913 116.338 7.2737 116.262C29.7123 108.054 52.1478 99.838 74.5864 91.6368C95.0282 84.1654 115.473 76.7032 135.918 69.2471C136.996 68.8532 138.153 68.6273 138.18 67.1067C138.183 66.8655 138.51 66.609 138.721 66.3953C143.991 61.0521 149.273 55.718 154.528 50.3595C155.028 49.8496 155.376 49.8496 155.963 50.1946C160.13 52.6464 164.313 55.0737 168.506 57.4858C169.302 57.9438 170.054 58.5239 170.982 58.7743C171.11 58.3499 170.982 58.0293 170.908 57.6996C169.495 51.6266 168.109 45.5475 166.652 39.4837C166.478 38.76 166.664 38.3753 167.132 37.9051C172.035 32.9496 176.923 27.9758 181.815 23.0051C183.109 21.6891 184.392 20.3609 185.757 18.9595C185.009 18.7763 184.514 19.045 184.013 19.1824H184.007ZM30.5825 105.929C23.8958 108.36 17.2183 110.808 10.5346 113.245C10.4033 113.294 10.2537 113.3 10.1102 113.327C9.90563 112.946 10.1713 112.704 10.2903 112.46C18.3632 95.9084 26.4453 79.3626 34.5212 62.8138C34.7655 62.3161 35.025 61.9528 35.6418 61.8123C41.3881 60.4994 47.1282 59.1499 52.8684 57.8125C52.9753 57.7881 53.0913 57.8095 53.4027 57.8095C52.9325 58.8293 52.3982 59.733 52.0868 60.7101C50.78 64.8076 48.2488 67.8426 44.4902 69.9371C43.2048 70.6546 42.0781 71.6531 40.7041 72.4042C41.4247 70.8439 42.1422 69.2868 42.9055 67.6349C41.8919 67.4823 41.0888 68.0105 40.2217 68.099C38.234 68.3006 37.1287 69.3295 36.2524 71.2103C31.5626 81.2801 26.6957 91.2643 21.8898 101.279C21.7615 101.548 21.6638 101.835 21.4532 102.357C23.563 101.618 25.4804 100.955 27.3918 100.268C27.7002 100.159 27.7612 99.8074 27.8895 99.5326C29.9016 95.2641 31.9381 91.0109 33.9075 86.7241C34.3533 85.7532 34.9517 85.0143 35.8189 84.3975C38.3867 82.5655 40.9118 80.6725 43.4521 78.8039C43.5101 78.8436 43.5712 78.8802 43.6322 78.9199C43.333 79.6008 43.0399 80.2847 42.7285 80.9595C39.0645 88.9072 35.3945 96.8488 31.7458 104.8C31.4893 105.355 31.1534 105.716 30.5733 105.926L30.5825 105.929ZM54.2882 97.2549C52.1417 97.9999 50.0136 98.7937 47.6259 99.6609C50.4136 93.2856 53.0944 87.1638 55.7751 81.0419C55.7141 80.9809 55.65 80.9198 55.5889 80.8618C54.5691 81.5976 53.6134 82.4434 52.5234 83.051C49.3419 84.8311 47.4672 87.5393 46.1909 90.904C44.8688 94.3848 43.1865 97.7281 41.6842 101.139C41.4247 101.731 41.0858 102.11 40.4415 102.326C38.4935 102.98 36.573 103.716 34.6403 104.421C34.3991 104.509 34.1731 104.674 33.7793 104.531C34.5548 102.806 35.3029 101.117 36.0723 99.438C42.3498 85.7379 48.6366 72.0439 54.8958 58.3377C55.2408 57.5805 55.6591 57.1225 56.5079 56.9576C58.2544 56.6156 59.9795 56.176 61.9825 55.7149C58.7857 62.8657 55.6866 69.8089 52.5845 76.7521C52.6425 76.8009 52.7005 76.8498 52.7585 76.8956C55.0637 75.2407 57.4178 73.6469 59.6376 71.8851C60.2268 71.418 60.4345 70.444 60.7703 69.6806C62.8313 64.9755 64.8953 60.2735 66.9196 55.5531C67.2647 54.7501 67.7104 54.2951 68.6081 54.1303C70.3179 53.8188 72.0003 53.3731 73.8201 52.9548C73.5544 54.2158 72.9774 55.2325 72.5255 56.292C66.8952 69.5249 61.2405 82.7518 55.6194 95.9908C55.3385 96.6534 54.9569 97.0259 54.2943 97.2549H54.2882ZM77.9115 88.6141C75.823 89.3072 73.7682 90.101 71.4477 90.9468C73.7498 85.1486 75.9787 79.5397 78.2076 73.9308C78.1374 73.8759 78.0672 73.824 77.997 73.769C75.7284 75.4086 73.4506 77.036 71.2003 78.7001C70.953 78.8833 70.8401 79.268 70.7118 79.5794C68.944 83.8693 67.1853 88.1622 65.4235 92.452C65.28 92.8001 65.2159 93.2154 64.8129 93.365C62.471 94.2321 60.123 95.087 57.5094 96.0458C58.5658 93.539 59.5124 91.2857 60.465 89.0354C65.4052 77.3352 70.3576 65.6381 75.2704 53.9257C75.7009 52.8998 76.2169 52.3197 77.3894 52.0662C82.925 50.8694 88.4361 49.5503 93.9565 48.2741C94.0572 48.2496 94.1672 48.2618 94.4023 48.2527C93.2939 51.1564 92.2161 53.9837 91.1322 56.8111C87.2728 66.8533 83.4013 76.8925 79.5725 86.947C79.2458 87.808 78.803 88.3148 77.9176 88.608L77.9115 88.6141ZM102.57 79.5641C100.249 80.3916 97.9441 81.2495 95.3457 82.1991C96.5823 78.6634 97.712 75.4361 98.8387 72.2118C99.1257 71.3874 99.4188 70.563 99.6967 69.7356C99.776 69.5036 99.9653 69.2654 99.6295 69.0395C98.97 68.5967 96.9396 68.7005 96.1915 69.0975C94.5305 69.9738 93.7 71.363 93.1199 73.1095C91.9261 76.7154 90.5429 80.2603 89.2544 83.8357C89.1048 84.2509 88.9399 84.5685 88.4819 84.7303C86.192 85.5455 83.9112 86.3882 81.5052 87.2676C81.6823 86.1165 82.1647 85.1791 82.5311 84.2143C87.0133 72.3736 91.523 60.5452 95.993 48.7046C96.2831 47.9382 96.6861 47.5962 97.4922 47.4161C102.869 46.207 108.234 44.9338 113.601 43.685C113.998 43.5934 114.398 43.5293 114.951 43.4224C113.849 46.7566 112.798 49.9564 111.739 53.1563C111.116 55.031 110.444 56.8904 109.879 58.7835C109.623 59.6445 109.18 60.246 108.417 60.7009C107.51 61.2444 106.658 61.8765 105.559 62.6215C106.423 62.8382 107.052 63.0123 107.69 63.1497C108.124 63.2413 108.353 63.3359 108.166 63.8886C106.487 68.8593 104.838 73.8392 103.177 78.8161C103.071 79.1367 102.967 79.4267 102.57 79.5672V79.5641ZM126.208 70.9172C119.458 73.3873 112.707 75.8574 105.956 78.3214C105.819 78.3703 105.669 78.3795 105.312 78.4436C106.603 74.4774 107.831 70.6852 109.07 66.8991C111.565 59.2781 114.087 51.6632 116.542 44.0269C116.829 43.1323 117.268 42.7659 118.16 42.598C119.87 42.2805 121.552 41.8316 123.46 41.3889C120.499 51.0068 117.601 60.4139 114.633 70.0532C116.755 69.3204 118.648 68.6731 120.532 68.0105C121.015 67.8395 121.027 67.3388 121.088 66.9541C121.299 65.6167 122.028 64.7465 123.17 64.0321C125.347 62.6673 127.445 61.1742 129.83 59.559C128.813 63.342 127.872 66.8136 126.947 70.2913C126.84 70.7004 126.523 70.8012 126.205 70.9172H126.208ZM136.635 66.1541C136.449 66.9754 136.107 67.4518 135.261 67.7296C133.136 68.4258 131.051 69.2379 128.694 70.099C129.686 66.2488 130.599 62.6856 131.521 59.1224C131.912 57.6141 132.275 56.0966 132.724 54.6066C132.987 53.7333 132.886 53.312 131.851 53.2326C130.642 53.138 129.448 52.857 128.245 52.6769C127.625 52.5853 127.317 52.4204 127.54 51.6602C128.605 48.0115 129.622 44.3506 130.623 40.6836C130.779 40.1187 131.088 39.8928 131.619 39.7768C133.103 39.4562 134.577 39.0837 136.061 38.757C137.405 38.4608 137.405 38.473 137.044 39.8592C136.489 41.9935 135.97 44.1369 135.362 46.2528C135.106 47.1413 135.246 47.5199 136.235 47.6542C138.394 47.9474 140.699 46.4207 141.185 44.2865C141.667 42.1736 142.186 40.0729 142.647 37.954C142.769 37.3922 143.014 37.1021 143.578 36.98C145.212 36.6227 146.842 36.2441 148.464 35.838C149.248 35.6426 149.364 35.8563 149.193 36.6197C148.507 39.6943 147.859 42.7812 147.249 45.8742C147.117 46.5367 146.833 46.955 146.275 47.3031C144.436 48.4542 142.635 49.6633 140.797 50.8175C140.275 51.1442 139.997 51.5441 139.857 52.1517C138.794 56.8202 137.683 61.4765 136.629 66.148L136.635 66.1541ZM178.926 23.3959C174.383 28.0125 169.843 32.6321 165.272 37.2242C164.692 37.8074 164.545 38.3356 164.741 39.1417C166.02 44.4666 167.241 49.8038 168.506 55.2386C167.993 55.2447 167.678 54.9608 167.345 54.7684C163.489 52.5365 159.62 50.3228 155.792 48.042C155.044 47.5962 154.65 47.7062 154.073 48.3015C149.526 52.967 144.943 57.5988 140.363 62.2337C140.055 62.5451 139.82 62.9726 139.279 63.0917C139.664 60.8841 140.177 58.9056 141.896 57.1958C146.22 52.9028 150.335 48.3993 154.491 43.9384C155.114 43.2697 155.553 43.227 156.305 43.6819C158.063 44.7475 159.874 45.7246 161.669 46.7322C161.993 46.9154 162.286 47.1932 162.768 47.1443C162.778 46.0696 162.411 45.062 162.225 44.0269C162.048 43.0529 161.981 42.027 161.614 41.1263C160.512 38.4089 161.312 36.4456 163.547 34.6625C165.293 33.2702 166.759 31.5237 168.335 29.9208C168.591 29.6612 168.948 29.4536 169.015 28.8735C167.061 29.4017 165.165 29.9086 163.272 30.4215C162.28 30.6902 161.275 30.9222 160.304 31.2459C159.587 31.484 159.303 31.2947 159.138 30.565C158.564 28.043 157.932 25.5332 157.324 23.0173C157.245 22.6906 157.23 22.3425 156.839 21.9639C156.137 23.9607 155.456 25.8843 154.784 27.8109C154.283 29.249 153.77 30.6841 153.312 32.1344C153.12 32.742 152.809 33.0626 152.161 33.2092C137.875 36.4731 123.592 39.7523 109.315 43.0468C96.2953 46.0513 83.2853 49.0832 70.2691 52.1059C58.9994 54.7226 47.7297 57.3393 36.457 59.9498C36.3135 59.9834 36.1639 59.9773 35.767 60.0078C37.4585 56.5668 39.0737 53.2937 40.6705 50.0144C40.8721 49.5992 41.214 49.5351 41.5896 49.4496C52.386 46.9734 63.1824 44.4941 73.9758 42.0148C83.5081 39.8226 93.0405 37.6211 102.576 35.435C107.95 34.2015 113.33 32.9924 118.771 31.7558C118.923 32.3329 118.609 32.7603 118.462 33.1969C117.952 34.7114 117.369 36.2014 116.871 37.7219C116.7 38.2471 116.163 38.9035 116.508 39.2974C116.878 39.7188 117.561 39.215 118.087 39.0715C126.825 36.6807 135.561 34.2747 144.296 31.8688C146.058 31.3833 147.801 30.8306 149.581 30.4154C150.427 30.2169 150.854 29.8231 151.135 29.0109C153.163 23.1486 155.233 17.3015 157.291 11.4484C157.465 10.9507 157.654 10.4591 158.06 9.95838C158.411 11.4484 158.769 12.9384 159.114 14.4314C159.999 18.2877 160.906 22.141 161.736 26.0095C161.932 26.9194 162.292 26.9591 163.068 26.7453C168.637 25.2004 174.218 23.6921 179.952 22.1318C179.705 22.7455 179.278 23.0539 178.933 23.4051L178.926 23.3959Z" fill="white"/>
<path d="M113.377 34.6661C111.762 34.147 108.464 35.5271 107.698 37.0507C106.941 38.5559 107.383 39.2612 109.075 39.2429C109.34 39.2429 109.612 39.1941 109.872 39.2277C110.327 39.2857 111.136 38.9437 111.157 39.4414C111.182 40.0459 110.348 40.0612 109.798 40.1436C109.615 40.1711 109.371 40.2169 109.24 40.1253C108.26 39.4628 107.402 39.9574 106.528 40.3574C106.644 41.6581 107.041 42.055 108.299 41.9634C109.64 41.8688 110.919 41.5024 112.091 40.8337C112.733 40.4673 113.233 39.9421 113.56 39.2796C114.281 37.814 113.832 37.1117 112.21 37.1697C111.832 37.182 111.456 37.2766 111.078 37.2858C110.626 37.298 109.908 37.6613 109.808 37.0843C109.716 36.5621 110.51 36.5347 110.962 36.3973C111.203 36.324 111.591 36.2599 111.722 36.3881C112.265 36.9194 112.797 36.5438 113.328 36.4522C113.755 36.3789 114.155 36.2354 114.134 35.6797C114.116 35.1698 113.881 34.8248 113.38 34.663L113.377 34.6661Z" fill="white"/>
<path d="M106.101 39.7799C105.38 39.9356 104.586 39.9295 104.153 40.7509C103.838 41.3463 103.243 41.6546 102.59 41.8134C101.872 41.9874 101.454 41.731 101.484 40.9677C101.53 39.7769 102.049 38.8273 103.127 38.2838C103.652 38.0212 104.394 37.7373 104.733 38.4517C105.145 39.325 105.701 38.7388 106.174 38.7296C106.519 38.7204 106.965 38.6502 106.998 38.125C107.035 37.5724 106.959 37.0594 106.486 36.6869C106.11 36.3908 105.679 36.2778 105.209 36.2686C102.654 36.2137 99.9729 38.2869 99.3958 40.7661C98.8828 42.9828 99.8538 43.9568 102.101 43.4897C104.028 43.0866 105.423 41.9569 106.498 40.3662C106.498 40.3662 106.495 40.3662 106.492 40.3662C106.501 40.073 106.608 39.667 106.098 39.7769L106.101 39.7799Z" fill="white"/>
<path d="M161.726 26.0033C160.899 22.1348 159.989 18.2815 159.103 14.4252C158.762 12.9322 158.401 11.4452 158.05 9.95215C157.644 10.4529 157.455 10.9475 157.281 11.4422C155.223 17.2922 153.15 23.1393 151.125 29.0047C150.844 29.8199 150.417 30.2138 149.571 30.4092C147.794 30.8244 146.048 31.3771 144.286 31.8625C135.55 34.2685 126.815 36.6745 118.076 39.0652C117.551 39.2087 116.867 39.7125 116.498 39.2912C116.153 38.8973 116.69 38.2408 116.861 37.7157C117.359 36.1982 117.942 34.7082 118.452 33.1907C118.599 32.7541 118.913 32.3266 118.76 31.7496C113.319 32.9861 107.94 34.1983 102.566 35.4288C93.0304 37.6149 83.5011 39.8163 73.9657 42.0086C63.1723 44.4909 52.3759 46.9671 41.5794 49.4433C41.2039 49.5288 40.8619 49.593 40.6604 50.0082C39.0635 53.2905 37.4484 56.5636 35.7568 60.0016C36.1538 59.9711 36.3034 59.9772 36.4469 59.9436C47.7166 57.33 58.9893 54.7133 70.259 52.0997C83.2721 49.08 96.2852 46.0481 109.304 43.0406C123.582 39.7431 137.865 36.4669 152.151 33.2029C152.798 33.0533 153.11 32.7358 153.302 32.1282C153.76 30.6779 154.273 29.2428 154.774 27.8047C155.446 25.8781 156.127 23.9545 156.829 21.9577C157.22 22.3363 157.235 22.6844 157.314 23.0111C157.922 25.527 158.554 28.0368 159.128 30.5588C159.293 31.2885 159.58 31.4809 160.294 31.2397C161.268 30.916 162.27 30.684 163.262 30.4153C165.155 29.9023 167.048 29.3955 169.005 28.8673C168.941 29.4504 168.584 29.655 168.324 29.9145C166.746 31.5175 165.283 33.264 163.537 34.6563C161.302 36.4394 160.502 38.4027 161.604 41.1201C161.971 42.0208 162.038 43.0467 162.215 44.0207C162.401 45.0558 162.77 46.0634 162.758 47.1381C162.276 47.187 161.986 46.9091 161.659 46.7259C159.864 45.7183 158.053 44.7413 156.294 43.6757C155.546 43.2208 155.104 43.2635 154.481 43.9322C150.325 48.393 146.209 52.8936 141.886 57.1895C140.164 58.8994 139.654 60.8748 139.269 63.0854C139.81 62.9663 140.045 62.5389 140.353 62.2275C144.933 57.5956 149.516 52.9638 154.062 48.2953C154.643 47.6999 155.036 47.59 155.781 48.0358C159.61 50.3166 163.479 52.5302 167.335 54.7622C167.671 54.9545 167.982 55.2385 168.495 55.2324C167.231 49.7945 166.01 44.4573 164.731 39.1355C164.538 38.3294 164.682 37.8012 165.262 37.218C169.833 32.6289 174.373 28.0093 178.916 23.3897C179.261 23.0385 179.689 22.7302 179.936 22.1164C174.202 23.6797 168.621 25.185 163.051 26.73C162.276 26.9467 161.916 26.907 161.72 25.9941L161.726 26.0033ZM49.231 55.3179C49.0417 55.5682 48.6814 55.669 48.4066 55.5774C48.0371 55.4553 48.2753 55.1316 48.3333 54.8996C48.6478 53.6538 48.9715 52.4111 49.1089 51.0799C48.2906 52.4295 47.4753 53.779 46.654 55.1286C46.4556 55.4522 46.2907 55.8125 46.0311 56.0751C45.4693 56.6369 44.822 56.4262 44.6877 55.6537C44.4953 54.5362 44.3427 53.4157 44.1289 52.0051C43.4847 53.4096 43.332 54.6706 42.9473 55.8552C42.8527 56.1453 42.813 56.4537 42.6939 56.7285C42.529 57.104 42.1596 57.1773 41.8237 57.0766C41.4329 56.9605 41.6558 56.6308 41.7169 56.4048C42.1748 54.64 42.6786 52.8875 43.103 51.1135C43.3168 50.225 44.0465 50.2677 44.6236 50.2403C45.2495 50.2097 45.1365 50.8906 45.2037 51.2967C45.3838 52.4203 45.5029 53.5531 45.6464 54.6828C45.7289 54.7072 45.8144 54.7286 45.8968 54.75C46.8158 53.2294 47.7379 51.7089 48.657 50.1883C48.8157 49.9288 48.9501 49.651 49.1333 49.4098C49.521 48.9029 50.1745 48.735 50.6599 48.8968C51.2736 49.0983 50.7882 49.6815 50.6996 50.0601C50.3424 51.5745 49.9271 53.0798 49.5241 54.582C49.4569 54.8355 49.3898 55.1163 49.2371 55.3179H49.231ZM55.1391 51.8921C55.4139 52.2524 55.6307 52.6615 55.823 53.0737C55.9421 53.3271 56.4093 53.6538 55.8627 53.9011C55.475 54.0752 55.0109 54.3317 54.6261 53.8401C54.5803 53.7821 54.5559 53.7057 54.5162 53.6416C53.5453 52.1302 53.5667 52.1516 52.3667 53.5225C51.7286 54.2523 51.2889 55.324 49.75 55.1927C50.7454 54.0294 51.5393 53.0157 52.4278 52.0905C52.9987 51.4952 53.1239 50.9791 52.6018 50.3135C52.3911 50.0479 52.2232 49.7365 52.098 49.422C51.9851 49.1289 51.469 48.7716 52.0889 48.4968C52.498 48.3167 52.9255 48.1823 53.3071 48.677C53.6247 49.0892 53.6094 49.9868 54.2689 49.8372C54.7208 49.7334 55.0475 49.0556 55.4169 48.6251C56.1212 47.8047 56.8316 47.3987 57.5481 47.4068C56.9283 48.4571 56.0826 49.2815 55.2979 50.1334C54.733 50.744 54.6414 51.2387 55.1421 51.8951L55.1391 51.8921ZM60.5404 52.7165C59.6305 52.5577 59.142 52.0356 59.1145 51.083C59.029 48.0907 62.7357 44.9336 65.6821 45.5077C66.482 45.6634 67.0347 46.0756 66.9523 46.9702C66.9156 47.3671 65.4745 47.7793 64.9279 47.5839C63.1173 46.9458 61.493 47.99 61.3281 49.9013C61.2548 50.7318 61.7769 51.1898 62.6044 50.973C63.1448 50.8326 63.731 50.7227 64.0242 50.1181C63.6181 49.7853 62.9128 50.4692 62.8517 49.7365C62.8028 49.1411 62.8822 48.4358 63.8043 48.3106C64.6287 48.1976 65.4348 47.9381 66.2469 47.7335C66.8271 47.59 67.0072 47.7793 66.8881 48.3747C66.3843 50.9181 63.1265 53.1622 60.5465 52.7165H60.5404ZM80.5974 48.2709C80.0295 48.3197 79.3517 49.0006 78.8998 48.1946C78.6891 47.8221 78.5364 47.8159 78.2097 47.8953C77.2021 48.1396 76.1793 48.1365 75.4587 49.2143C74.958 49.9624 73.7855 49.7762 72.9245 50.0387C71.8986 50.3532 70.8971 50.6097 70.6956 49.0434C70.6559 48.7472 70.4208 48.564 70.1094 48.677C69.7094 48.8205 69.1506 48.6892 68.9919 49.2846C68.8941 49.651 68.7903 50.0174 68.6774 50.3807C68.4972 50.9669 67.3583 51.5623 66.7721 51.4066C66.3477 51.2936 66.5126 51.0127 66.5736 50.7776C67.0469 48.9762 67.5354 47.1778 68.0087 45.3764C68.1186 44.9581 68.3507 44.7443 68.7781 44.6527C70.0788 44.3749 71.3612 44.0024 72.6711 43.7795C74.2771 43.5078 74.9 44.326 74.2954 45.8435C74.1305 46.2588 73.9321 46.7473 73.5962 46.9946C72.6222 47.7152 72.7566 48.4693 73.4558 49.48C74.7503 47.3976 76.048 45.4283 77.2113 43.3826C77.8189 42.3109 78.8143 42.3567 79.7516 42.1796C80.2524 42.0849 80.2249 42.5643 80.2768 42.8849C80.5241 44.3871 80.75 45.8893 81.0126 47.3885C81.0859 47.8129 81.0859 48.2312 80.6004 48.2709H80.5974ZM86.7467 44.8512C86.2887 45.0283 85.8032 45.1565 85.3178 45.2268C84.3132 45.3703 83.669 45.8099 83.5346 46.903C83.3973 48.0114 82.4141 47.8617 81.6752 47.9717C81.2722 48.0297 81.3393 47.6419 81.4065 47.3915C81.9072 45.5199 82.4202 43.6513 82.924 41.7796C83.0003 41.4926 83.1713 41.3247 83.4644 41.2636C84.9147 40.9583 86.3559 40.6102 87.8154 40.3537C88.6397 40.2102 89.2473 40.5247 89.2779 41.4926C89.3115 42.8238 88.2398 44.2741 86.7528 44.8512H86.7467ZM93.7479 45.1535C93.2349 45.1535 93.5403 44.6314 93.6074 44.3413C93.9525 42.7994 93.9677 42.8696 92.4014 43.1017C91.3144 43.2604 90.8992 43.8833 90.8167 44.8329C90.7221 45.9534 90.0076 46.274 89.3054 46.3015C88.5909 46.4053 88.4169 46.2527 88.5512 45.7672C89.055 43.9352 89.516 42.0941 90.0382 40.2682C90.3007 39.3461 91.1801 39.4255 91.8426 39.4713C92.4319 39.511 92.0625 40.0698 91.9953 40.3812C91.7205 41.6788 91.693 41.572 93.0304 41.3796C94.2089 41.2086 94.7585 40.656 94.8807 39.5171C95.0028 38.3996 95.9249 38.3599 96.7493 38.2653C97.2805 38.2042 97.1401 38.6133 97.0668 38.8912C96.5905 40.6896 96.0959 42.4819 95.6134 44.2772C95.3387 45.2939 94.441 45.1535 93.7479 45.1535ZM96.7584 44.5337C96.1111 44.7169 96.0775 44.4299 96.1691 44.0818C96.6729 42.1704 97.1279 40.2438 97.7324 38.366C97.9736 37.6149 98.8652 37.7004 99.5247 37.6729C99.9491 37.6546 99.7629 38.0638 99.7048 38.2897C99.2407 40.0942 98.7583 41.8926 98.2851 43.694C98.0469 44.6039 97.2164 44.3841 96.7584 44.5337ZM113.326 36.4516C112.794 36.5402 112.263 36.9188 111.72 36.3875C111.588 36.2593 111.2 36.3234 110.959 36.3967C110.507 36.5341 109.714 36.5615 109.805 37.0836C109.906 37.6607 110.626 37.2974 111.075 37.2852C111.454 37.276 111.829 37.1814 112.208 37.1691C113.829 37.1111 114.278 37.8134 113.558 39.279C113.231 39.9446 112.73 40.4697 112.089 40.8331C110.917 41.5018 109.634 41.8651 108.297 41.9628C107.039 42.0544 106.642 41.6575 106.526 40.3568C106.517 40.3598 106.508 40.3659 106.501 40.369C105.427 41.9597 104.031 43.0895 102.105 43.4925C99.8575 43.9627 98.8835 42.9856 99.3995 40.769C99.9766 38.2897 102.657 36.2165 105.213 36.2715C105.683 36.2806 106.114 36.3936 106.489 36.6898C106.963 37.0623 107.039 37.5752 107.002 38.1279C106.969 38.653 106.52 38.7263 106.178 38.7324C105.702 38.7416 105.149 39.3278 104.737 38.4546C104.398 37.7401 103.656 38.021 103.131 38.2866C102.056 38.8271 101.534 39.7797 101.488 40.9705C101.46 41.7338 101.876 41.9903 102.593 41.8162C103.247 41.6575 103.842 41.3491 104.157 40.7537C104.59 39.9324 105.384 39.9385 106.105 39.7828C106.614 39.6728 106.511 40.0789 106.498 40.372C106.498 40.372 106.501 40.372 106.505 40.372C106.511 40.3598 106.52 40.3507 106.529 40.3384C106.529 40.3446 106.529 40.3537 106.529 40.3598C107.402 39.9629 108.26 39.4652 109.24 40.1278C109.372 40.2163 109.616 40.1736 109.799 40.1461C110.349 40.0637 111.185 40.0484 111.158 39.4438C111.136 38.9462 110.327 39.2881 109.872 39.2301C109.613 39.1965 109.341 39.2423 109.075 39.2454C107.384 39.2637 106.941 38.5584 107.698 37.0531C108.465 35.5295 111.762 34.1494 113.377 34.6685C113.881 34.8303 114.113 35.1753 114.132 35.6852C114.153 36.2409 113.753 36.3875 113.326 36.4577V36.4516Z" fill="#D30000"/>
<path d="M106.501 40.3684C106.501 40.3684 106.517 40.3587 106.527 40.3555C106.527 40.3491 106.527 40.3394 106.527 40.333C106.52 40.3459 106.511 40.3555 106.501 40.3684Z" fill="black"/>
<path d="M43.64 78.9277C43.579 78.888 43.521 78.8513 43.4599 78.8116C40.9196 80.6803 38.3945 82.5733 35.8267 84.4053C34.9596 85.0251 34.3611 85.7609 33.9153 86.7319C31.9429 91.0156 29.9064 95.2719 27.8973 99.5404C27.7691 99.8152 27.708 100.163 27.3996 100.276C25.4913 100.963 23.5739 101.626 21.461 102.365C21.6717 101.843 21.7663 101.556 21.8976 101.287C26.7004 91.2721 31.5674 81.2848 36.2603 71.2181C37.1366 69.3404 38.2418 68.3083 40.2295 68.1068C41.0967 68.0183 41.8997 67.4901 42.9134 67.6427C42.1531 69.2945 41.4325 70.8517 40.712 72.412C42.0859 71.6578 43.2126 70.6594 44.498 69.9449C48.2566 67.8503 50.7878 64.8154 52.0946 60.7179C52.406 59.7408 52.9404 58.834 53.4106 57.8173C53.0991 57.8173 52.9801 57.7959 52.8762 57.8203C47.133 59.1576 41.3959 60.5072 35.6496 61.8201C35.0328 61.9606 34.7703 62.3239 34.529 62.8216C26.4531 79.3704 18.3711 95.9162 10.2982 112.468C10.1791 112.712 9.91345 112.953 10.118 113.335C10.2615 113.308 10.4081 113.302 10.5424 113.253C17.2261 110.813 23.9036 108.367 30.5903 105.937C31.1704 105.726 31.5063 105.366 31.7628 104.81C35.4114 96.8596 39.0845 88.915 42.7454 80.9703C43.0569 80.2955 43.3469 79.6116 43.6492 78.9307L43.64 78.9277Z" fill="black"/>
<path d="M73.8103 52.9561C71.9906 53.3744 70.3051 53.8171 68.5984 54.1316C67.7007 54.2964 67.2549 54.7514 66.9099 55.5544C64.8886 60.2748 62.8246 64.9799 60.7606 69.682C60.4247 70.4453 60.2171 71.4162 59.6278 71.8864C57.4081 73.6482 55.054 75.2389 52.7488 76.8969C52.6907 76.848 52.6327 76.7992 52.5747 76.7534C55.6769 69.8102 58.7759 62.8701 61.9727 55.7162C59.9698 56.1773 58.2447 56.6169 56.4982 56.9589C55.6494 57.1238 55.2311 57.5848 54.8861 58.339C48.6268 72.0452 42.3401 85.7392 36.0625 99.4393C35.2931 101.119 34.5451 102.807 33.7695 104.532C34.1634 104.676 34.3893 104.511 34.6306 104.422C36.5602 103.717 38.4808 102.981 40.4318 102.328C41.0791 102.111 41.415 101.732 41.6745 101.14C43.1767 97.7264 44.8591 94.383 46.1811 90.9053C47.4574 87.5437 49.3321 84.8324 52.5137 83.0523C53.6037 82.4416 54.5624 81.5989 55.5792 80.8631C55.6402 80.9242 55.7043 80.9852 55.7654 81.0432C53.0846 87.1651 50.4069 93.29 47.6162 99.6622C50.0039 98.795 52.135 98.0042 54.2785 97.2562C54.941 97.0272 55.3227 96.6547 55.6036 95.9921C61.2247 82.7531 66.8794 69.5293 72.5096 56.2933C72.9585 55.2369 73.5386 54.2171 73.8042 52.9561H73.8103Z" fill="black"/>
<path d="M94.3948 48.2617C94.1597 48.2709 94.0498 48.2617 93.949 48.2831C88.4287 49.5563 82.9175 50.8753 77.3819 52.0753C76.2094 52.3287 75.6934 52.9088 75.2629 53.9347C70.3502 65.6471 65.3977 77.3443 60.4575 89.0445C59.508 91.2947 58.5584 93.5481 57.502 96.0548C60.1186 95.0961 62.4635 94.2411 64.8054 93.374C65.2115 93.2244 65.2756 92.8061 65.4161 92.4611C67.1778 88.1682 68.9365 83.8783 70.7044 79.5884C70.8326 79.277 70.9456 78.8892 71.1929 78.7091C73.4432 77.045 75.7209 75.4146 77.9895 73.778C78.0597 73.833 78.1299 73.8849 78.2002 73.9398C75.9713 79.5487 73.7454 85.1576 71.4402 90.9558C73.7607 90.1101 75.8156 89.3162 77.904 88.6231C78.7895 88.33 79.2291 87.8231 79.5589 86.9621C83.3877 76.9076 87.2623 66.8684 91.1186 56.8262C92.2025 54.0019 93.2804 51.1715 94.3887 48.2678L94.3948 48.2617ZM83.4244 60.9542C82.49 64.3006 80.6092 66.8074 77.4949 68.4165C76.53 68.9141 75.6904 69.653 74.7988 70.279C74.521 70.0347 74.695 69.821 74.7683 69.6378C76.2339 66.0563 77.7178 62.4809 79.165 58.8933C79.4307 58.2368 79.7909 57.8643 80.5146 57.7116C81.9832 57.4002 83.4274 56.9819 85.125 56.5453C84.493 58.1574 83.8243 59.5192 83.4244 60.9542Z" fill="black"/>
<path d="M107.686 63.1462C107.048 63.0088 106.416 62.8348 105.555 62.618C106.654 61.873 107.506 61.241 108.413 60.6975C109.176 60.2395 109.619 59.6411 109.875 58.78C110.44 56.887 111.115 55.0275 111.735 53.1528C112.794 49.956 113.847 46.7562 114.947 43.4189C114.397 43.5258 113.994 43.5899 113.597 43.6815C108.229 44.9303 102.865 46.2035 97.488 47.4126C96.6819 47.5928 96.2789 47.9348 95.9888 48.7011C91.5158 60.5448 87.0061 72.3733 82.5269 84.2108C82.1605 85.1757 81.6781 86.1161 81.501 87.2641C83.907 86.3848 86.1878 85.5421 88.4777 84.7268C88.9357 84.565 89.1006 84.2475 89.2502 83.8322C90.5387 80.2568 91.9218 76.712 93.1157 73.106C93.6958 71.3596 94.5232 69.9703 96.1873 69.094C96.9353 68.7001 98.9658 68.5933 99.6253 69.036C99.9611 69.262 99.7718 69.5001 99.6925 69.7322C99.4146 70.5596 99.1215 71.384 98.8345 72.2084C97.7078 75.4326 96.5781 78.66 95.3415 82.1957C97.9399 81.243 100.248 80.3851 102.566 79.5607C102.959 79.4202 103.063 79.1302 103.173 78.8096C104.834 73.8327 106.483 68.8528 108.162 63.8821C108.349 63.3294 108.12 63.2348 107.686 63.1432V63.1462ZM100.193 60.8624C99.0849 61.415 98.1231 62.2577 97.0941 62.9691C97.03 62.9142 96.9659 62.8562 96.9018 62.8012C98.0986 59.5311 99.3047 56.2611 100.486 52.9849C100.627 52.5941 100.899 52.4567 101.228 52.3712C102.801 51.9651 104.373 51.5773 106.071 51.1499C105.921 52.3529 105.335 53.3055 105.109 54.3528C104.474 57.2961 102.941 59.4914 100.193 60.8624Z" fill="black"/>
<path d="M123.167 64.0328C122.025 64.7473 121.293 65.6175 121.085 66.9548C121.024 67.3395 121.012 67.8403 120.529 68.0112C118.645 68.6769 116.752 69.3211 114.63 70.0539C117.598 60.4147 120.496 51.0075 123.457 41.3896C121.552 41.8324 119.867 42.2812 118.157 42.5988C117.265 42.7636 116.826 43.1331 116.539 44.0277C114.081 51.6609 111.562 59.2758 109.067 66.8999C107.828 70.6859 106.6 74.4781 105.309 78.4443C105.666 78.3772 105.815 78.371 105.953 78.3222C112.704 75.8582 119.458 73.3911 126.205 70.918C126.523 70.802 126.837 70.6981 126.947 70.2921C127.872 66.8144 128.813 63.3428 129.83 59.5598C127.442 61.1749 125.347 62.668 123.17 64.0328H123.167Z" fill="black"/>
<path d="M140.799 50.825C142.634 49.6708 144.439 48.4617 146.277 47.3106C146.836 46.9595 147.123 46.5412 147.251 45.8817C147.859 42.7887 148.506 39.7049 149.196 36.6272C149.367 35.8639 149.248 35.6501 148.466 35.8455C146.845 36.2516 145.214 36.6302 143.581 36.9875C143.019 37.1096 142.772 37.4027 142.65 37.9615C142.189 40.0774 141.67 42.1811 141.187 44.294C140.702 46.4282 138.396 47.9549 136.238 47.6618C135.249 47.5274 135.108 47.1488 135.365 46.2603C135.972 44.1413 136.491 41.9979 137.047 39.8667C137.407 38.4836 137.407 38.4683 136.064 38.7645C134.58 39.0912 133.105 39.4637 131.621 39.7843C131.087 39.9003 130.779 40.1262 130.626 40.6911C129.624 44.3581 128.608 48.019 127.542 51.6677C127.319 52.431 127.628 52.5928 128.247 52.6844C129.45 52.8646 130.644 53.1455 131.853 53.2401C132.885 53.3195 132.989 53.7408 132.727 54.6141C132.278 56.1041 131.911 57.6216 131.524 59.1299C130.601 62.6931 129.688 66.2563 128.696 70.1065C131.053 69.2454 133.139 68.4333 135.264 67.7371C136.11 67.4593 136.452 66.9829 136.638 66.1616C137.691 61.4901 138.803 56.8338 139.865 52.1654C140.002 51.5577 140.283 51.1578 140.806 50.8311L140.799 50.825Z" fill="black"/>
<path d="M71.5786 45.5543C71.1328 45.6704 70.6107 45.7803 70.1069 45.9452C69.7069 46.0765 69.7283 46.4734 69.6703 46.8062C69.6459 46.9589 69.652 47.0932 69.8474 47.1604C70.2168 47.2856 71.945 46.623 72.1007 46.2597C72.29 45.823 72.2503 45.5024 71.5755 45.5543H71.5786Z" fill="#E00303"/>
<path d="M77.2637 46.4213C78.775 46.2259 78.8636 46.0579 78.2896 44.6748C77.8438 45.1664 77.569 45.7312 77.2637 46.4213Z" fill="#E00303"/>
<path d="M85.4681 42.394C85.2177 42.4276 84.9277 42.5223 84.7567 42.6902C84.5094 42.9314 84.4605 43.31 84.5246 43.6398C84.5643 43.8413 84.83 43.7924 85.1048 43.765C85.2391 43.7314 85.4559 43.6703 85.6757 43.6215C86.3383 43.478 87.1291 43.1787 86.9276 42.4673C86.7413 41.8078 85.9719 42.3238 85.4681 42.394Z" fill="#E00303"/>
</g>
<defs>
<clipPath id="clip0_35_85">
<rect width="189.591" height="121.28" fill="white"/>
</clipPath>
</defs>
</svg>
